<?xml version="1.0" encoding="UTF-8"?>
<svg width="16px" height="20px" viewBox="0 0 16 20" version="1.1" xmlns="http://www.w3.org/2000/svg" xmlns:xlink="http://www.w3.org/1999/xlink">
    <!-- Generator: Sketch 55.2 (78181) - https://sketchapp.com -->
    <title>pin</title>
    <desc>Created with Sketch.</desc>
    <defs>
        <path d="M12,10.9995 C11.173,10.9995 10.5,10.3265 10.5,9.4995 C10.5,8.6725 11.173,7.9995 12,7.9995 C12.827,7.9995 13.5,8.6725 13.5,9.4995 C13.5,10.3265 12.827,10.9995 12,10.9995 M12,5.9995 C10.07,5.9995 8.5,7.5695 8.5,9.4995 C8.5,11.4295 10.07,12.9995 12,12.9995 C13.93,12.9995 15.5,11.4295 15.5,9.4995 C15.5,7.5695 13.93,5.9995 12,5.9995 M12,19.646 C10.325,18.062 6,13.615 6,9.922 C6,6.657 8.691,4 12,4 C15.309,4 18,6.657 18,9.922 C18,13.615 13.675,18.062 12,19.646 M12,2 C7.589,2 4,5.553 4,9.922 C4,15.397 11.049,21.501 11.349,21.758 C11.537,21.919 11.768,22 12,22 C12.232,22 12.463,21.919 12.651,21.758 C12.951,21.501 20,15.397 20,9.922 C20,5.553 16.411,2 12,2" id="path-1"></path>
    </defs>
    <g id="Page-1" stroke="none" stroke-width="1" fill="none" fill-rule="evenodd">
        <g id="Show-Cards" transform="translate(-57.000000, -501.000000)">
            <g id="Card-2" transform="translate(44.000000, 349.000000)">
                <g id="Card">
                    <g id="pin" transform="translate(9.000000, 150.000000)">
                        <mask id="mask-2" fill="white">
                            <use xlink:href="#path-1"></use>
                        </mask>
                        <use id="🎨-Icon-Сolor" fill="#0D1C2E" fill-rule="nonzero" xlink:href="#path-1"></use>
                    </g>
                </g>
            </g>
        </g>
    </g>
</svg>