<?xml version="1.0" encoding="UTF-8"?>
<svg width="14px" height="17px" viewBox="0 0 14 17" version="1.1" xmlns="http://www.w3.org/2000/svg" xmlns:xlink="http://www.w3.org/1999/xlink">
    <!-- Generator: Sketch 55.2 (78181) - https://sketchapp.com -->
    <title>refresh</title>
    <desc>Created with Sketch.</desc>
    <defs>
        <path d="M15.2274,11.747575 C14.8329,11.60145 14.4114,11.856075 14.2854,12.316325 C13.58265,14.894075 11.51415,16.624825 9.13815,16.624825 C6.16665,16.624825 3.75015,13.877325 3.75015,10.499825 C3.75015,7.1232 6.16665,4.374825 9.13815,4.374825 C10.43415,4.374825 11.65665,4.901575 12.6219,5.836075 L10.9974,5.5237 C10.5849,5.4362 10.2024,5.767825 10.1349,6.243825 C10.0674,6.7207 10.34415,7.171325 10.7529,7.2492 L13.9374,7.86345 C13.97865,7.871325 14.02065,7.874825 14.0604,7.874825 C14.14965,7.874825 14.23665,7.85645 14.31765,7.82145 C14.3454,7.8092 14.3679,7.78645 14.3949,7.769825 C14.4444,7.740075 14.49615,7.713825 14.5389,7.671825 C14.5659,7.64645 14.58315,7.6097 14.6064,7.57995 C14.64165,7.537075 14.67915,7.49595 14.7054,7.44345 C14.72415,7.405825 14.73165,7.3612 14.7459,7.3192 C14.7639,7.267575 14.7879,7.21945 14.7969,7.162575 L15.3624,3.662575 C15.4389,3.18745 15.17115,2.72895 14.7639,2.640575 C14.35815,2.554825 13.9644,2.8637 13.8879,3.33795 L13.6839,4.598825 C12.4359,3.33795 10.83615,2.624825 9.13815,2.624825 C5.34015,2.624825 2.25015,6.1572 2.25015,10.499825 C2.25015,14.84245 5.34015,18.374825 9.13815,18.374825 C12.16965,18.374825 14.81265,16.1532 15.7149,12.846575 C15.84015,12.386325 15.6219,11.894575 15.2274,11.747575" id="path-1"></path>
    </defs>
    <g id="Page-1" stroke="none" stroke-width="1" fill="none" fill-rule="evenodd">
        <g id="Show-Cards" transform="translate(-223.000000, -31.000000)">
            <g id="Header">
                <g id="refresh" transform="translate(221.000000, 29.000000)">
                    <mask id="mask-2" fill="white">
                        <use xlink:href="#path-1"></use>
                    </mask>
                    <use id="🎨-Icon-Сolor" fill="#0D1C2E" fill-rule="nonzero" xlink:href="#path-1"></use>
                </g>
            </g>
        </g>
    </g>
</svg>